<svg xmlns="http://www.w3.org/2000/svg" width="67.973" height="67.973" viewBox="0 0 67.973 67.973"><defs><style>.a{fill:#235087;}.b{fill:#4db5ff;}.c{fill:#b7e5ff;}.d{fill:#3f96d5;}.e{fill:#3275a5;}.f{fill:#ffa511;}.g{fill:#ef2648;}.h{fill:#8dbcde;}.i{fill:#96d0ea;}.j{fill:#163768;}.k{fill:#306286;}.l{fill:#1c415c;}.m{fill:#4d97ff;}</style></defs><g transform="translate(0.001)"><g transform="translate(63.285)"><path class="a" d="M481.378,467.862v3.516a2.343,2.343,0,0,1-2.344,2.344h0a2.343,2.343,0,0,1-2.344-2.344v-3.516Z" transform="translate(-476.69 -405.749)"/><path class="a" d="M479.034,0,476.69,5.86V9.376h4.688V5.86Z" transform="translate(-476.69)"/></g><rect class="b" width="4.688" height="52.738" transform="translate(63.285 9.376)"/><rect class="c" width="58.597" height="67.973" transform="translate(-0.001)"/><path class="a" d="M68.672,317.093H27.654a1.172,1.172,0,0,1-1.172-1.172V292.482a1.172,1.172,0,0,1,2.344,0v22.267H68.672a1.172,1.172,0,1,1,0,2.344Z" transform="translate(-22.967 -252.636)"/><path class="d" d="M62.872,345.947a1.172,1.172,0,0,1-.525-2.227l9.376-4.688a1.169,1.169,0,0,1,1.048,0l4.057,2.029,7.629-5.448a1.171,1.171,0,0,1,1.406.028l10.548,8.2a1.172,1.172,0,0,1-1.4,1.881l-.041-.032-9.857-7.667-7.494,5.351a1.171,1.171,0,0,1-1.2.1L72.248,341.4,63.4,345.831A1.178,1.178,0,0,1,62.872,345.947Z" transform="translate(-53.498 -290.866)"/><g transform="translate(8.205 45.705)"><path class="e" d="M88.762,357.161a1.207,1.207,0,0,1-.322-.044l-7.852-2.244L73.9,357.1a1.172,1.172,0,0,1-1.15-.234L62.2,347.489a1.172,1.172,0,0,1,1.559-1.751h0l10.04,8.924,6.389-2.128a1.174,1.174,0,0,1,.693-.017l7.383,2.11,6.557-9.836a1.172,1.172,0,0,1,1.95,1.3l-7.032,10.548A1.172,1.172,0,0,1,88.762,357.161Z" transform="translate(-61.809 -344.269)"/><path class="f" d="M367.791,346.619H363.1a1.172,1.172,0,0,1,0-2.344h4.688a1.172,1.172,0,0,1,0,2.344Z" transform="translate(-322.087 -344.274)"/></g><path class="g" d="M367.791,399.585H363.1a1.172,1.172,0,0,1,0-2.344h4.688a1.172,1.172,0,0,1,0,2.344Z" transform="translate(-313.882 -344.503)"/><path class="b" d="M35.31,100a11.719,11.719,0,0,0,20.006,8.287L47.03,100V88.276A11.719,11.719,0,0,0,35.31,100Z" transform="translate(-30.623 -76.556)"/><path class="e" d="M123.586,88.276V100l8.287-8.287A11.685,11.685,0,0,0,123.586,88.276Z" transform="translate(-107.18 -76.556)"/><path class="d" d="M131.873,114.132l-8.287,8.287,8.287,8.287A11.72,11.72,0,0,0,131.873,114.132Z" transform="translate(-107.18 -98.98)"/><g transform="translate(36.33 17.579)"><rect class="h" width="4.688" height="2.344" transform="translate(14.063)"/><rect class="h" width="11.72" height="2.344"/><rect class="h" width="7.032" height="2.344" transform="translate(11.72 9.376)"/><rect class="h" width="9.376" height="2.344" transform="translate(0 9.376)"/><rect class="h" width="11.72" height="2.344" transform="translate(7.032 4.688)"/><rect class="h" width="4.688" height="2.344" transform="translate(0 4.688)"/></g><path class="e" d="M239.516,134.818a1.157,1.157,0,0,1-.445-.082,1.712,1.712,0,0,1-.387-.258,1.159,1.159,0,0,1-.34-.832,1.231,1.231,0,0,1,.34-.832,1.213,1.213,0,0,1,1.664,0,1.231,1.231,0,0,1,.34.832,1.16,1.16,0,0,1-1.148,1.172Z" transform="translate(-206.703 -114.895)"/><path class="d" d="M239.516,170.164a1.16,1.16,0,0,1-1.172-1.148,1.172,1.172,0,0,1,.094-.469,1.155,1.155,0,0,1,1.91-.387,1.363,1.363,0,0,1,.246.387.991.991,0,0,1,.094.445,1.16,1.16,0,0,1-1.148,1.172Z" transform="translate(-206.702 -145.553)"/><path class="b" d="M239.516,205.378a1.16,1.16,0,0,1-1.172-1.148v-.024a1.172,1.172,0,0,1,2.344,0,1.16,1.16,0,0,1-1.149,1.172Z" transform="translate(-206.702 -176.079)"/><g transform="translate(17.578 4.688)"><rect class="h" width="4.688" height="2.344" transform="translate(18.751)"/><rect class="h" width="16.407" height="2.344"/></g><g transform="translate(-0.001 30.002)"><path class="i" d="M43.154,243.528l-2.473,3.709,2.227,1.732a1.172,1.172,0,1,1-1.4,1.881l-.041-.032-2.092-1.628-3.245,4.868a1.174,1.174,0,0,1-.974.523,1.206,1.206,0,0,1-.322-.044l-6.368-1.82a69.747,69.747,0,0,1-16.905,5.38H45.7a1.172,1.172,0,1,1,0,2.344H4.687a1.172,1.172,0,0,1-1.172-1.172V259.1q-1.747.118-3.516.143v4.717H58.6V225.986A70.644,70.644,0,0,1,43.154,243.528Zm10.755,7.538H49.221a1.172,1.172,0,1,1,0-2.344h4.688a1.172,1.172,0,1,1,0,2.344Zm0-7.032H49.221a1.172,1.172,0,0,1,0-2.344h4.688a1.172,1.172,0,0,1,0,2.344Z" transform="translate(0.001 -225.986)"/><path class="i" d="M237.93,393.005l3.07.878,2.865-4.3-.065-.05Q240.959,391.408,237.93,393.005Z" transform="translate(-206.342 -367.821)"/></g><path class="j" d="M26.483,469.034a1.172,1.172,0,0,0,1.172,1.172H68.673a1.172,1.172,0,1,0,0-2.344H34.53a70.629,70.629,0,0,1-8.047,1Z" transform="translate(-22.968 -405.749)"/><path class="g" d="M282.221,388.865l.107-.16c-.056.038-.117.073-.171.11Z" transform="translate(-244.698 -337.1)"/><path class="k" d="M298.7,389.639a1.172,1.172,0,0,0,1.48-1.818l-.041-.032-2.227-1.732-1.306,1.954Z" transform="translate(-257.23 -334.805)"/><g transform="translate(28.467 45.706)"><path class="l" d="M225.449,360.887c-.613.436-1.228.867-1.855,1.283l-.107.16-2.865,4.3-3.07-.878q-1.536.812-3.12,1.547l6.368,1.82a1.2,1.2,0,0,0,.322.044,1.174,1.174,0,0,0,.975-.521l3.244-4.87,1.3-1.955,2.473-3.709C227.929,359.077,226.7,360,225.449,360.887Z" transform="translate(-214.432 -356.272)"/><path class="l" d="M367.791,344.276H363.1a1.172,1.172,0,0,0,0,2.344h4.688a1.172,1.172,0,0,0,0-2.344Z" transform="translate(-342.349 -344.276)"/></g><path class="d" d="M367.791,397.241H363.1a1.172,1.172,0,0,0,0,2.344h4.688a1.172,1.172,0,0,0,0-2.344Z" transform="translate(-313.882 -344.503)"/><g transform="translate(63.285 2.93)"><path class="j" d="M476.69,478.827a2.344,2.344,0,0,0,4.688,0v-2.376A5.835,5.835,0,0,1,476.69,478.827Z" transform="translate(-476.69 -416.127)"/><path class="j" d="M503.172,473.4a2.337,2.337,0,0,0,1.172-2.019v-3.516h-1.172Z" transform="translate(-499.656 -408.678)"/><path class="j" d="M503.172,22.069v6.446h1.172V25Z" transform="translate(-499.656 -22.069)"/></g><rect class="m" width="1.172" height="52.738" transform="translate(66.8 9.376)"/></g></svg>