<svg xmlns="http://www.w3.org/2000/svg" width="74.017" height="59" viewBox="0 0 74.017 59"><defs><style>.a{fill:#49618c;}.b{fill:#00b2e1;}.c{fill:#3b4773;}.d{fill:#007db5;}.e{fill:#fff;}</style></defs><g transform="translate(0 -51.937)"><g transform="translate(3.471 76.482)"><path class="a" d="M28.547,222.266v33.911H24.012V221.722Z" transform="translate(-24.012 -221.722)"/><path class="a" d="M461.145,221.733v34.454H456.61V222.275Z" transform="translate(-394.072 -221.731)"/></g><path class="b" d="M74.016,51.937V76.012a262.823,262.823,0,0,1-31.025,2.553A262.757,262.757,0,0,1,0,76.012V51.937q5.257.748,10.533,1.282h0A262.606,262.606,0,0,0,74.016,51.937Z" transform="translate(0 0)"/><g transform="translate(3.471 76.482)"><path class="c" d="M24.012,221.722l4.535.544v5.211q-2.268-.252-4.535-.544Z" transform="translate(-24.012 -221.722)"/><path class="c" d="M461.145,221.733v5.21q-2.266.292-4.535.544v-5.211Z" transform="translate(-394.072 -221.731)"/></g><path class="d" d="M42.991,78.565A262.742,262.742,0,0,1,0,76.012V51.937q5.257.748,10.533,1.282S19.936,77,42.972,78.563Z" transform="translate(0 0)"/><g transform="translate(11.77 59.017)"><path class="e" d="M155.122,110.718h-.048c-2.418-.1-4.866-.251-7.276-.448a1.133,1.133,0,1,1,.185-2.258c2.38.2,4.8.344,7.185.443a1.133,1.133,0,0,1-.046,2.265Z" transform="translate(-137.312 -106.981)"/><path class="e" d="M172.887,121.861a1.133,1.133,0,0,1-1.133-1.133v-9.8a1.133,1.133,0,1,1,2.266,0v9.8A1.133,1.133,0,0,1,172.887,121.861Z" transform="translate(-158.695 -108.515)"/><path class="e" d="M366.193,104a1.133,1.133,0,0,1-.105-2.261c2.381-.225,4.79-.5,7.16-.823a1.133,1.133,0,1,1,.3,2.245c-2.4.325-4.839.605-7.251.833C366.265,104,366.229,104,366.193,104Z" transform="translate(-324.057 -100.909)"/><path class="e" d="M391.137,116.088A1.133,1.133,0,0,1,390,114.955v-9.8a1.133,1.133,0,1,1,2.266,0v9.8A1.133,1.133,0,0,1,391.137,116.088Z" transform="translate(-345.394 -103.576)"/><path class="e" d="M295.43,118.127a1.133,1.133,0,0,1-1.133-1.133v-5.35a1.133,1.133,0,0,1,1.091-1.132c.936-.035,1.888-.078,2.83-.128a3.5,3.5,0,0,1,2.626.951,3.458,3.458,0,0,1,1.077,2.537v.335a3.836,3.836,0,0,1-3.583,3.79c-.948.05-1.912.094-2.865.129Zm1.133-5.395v3.082c.554-.024,1.107-.051,1.655-.08h0a1.562,1.562,0,0,0,1.437-1.527v-.335a1.214,1.214,0,0,0-.371-.893,1.261,1.261,0,0,0-.947-.332C297.748,112.678,297.154,112.706,296.563,112.732Z" transform="translate(-263.522 -109.009)"/><path class="e" d="M295.43,154.775a1.133,1.133,0,0,1-1.133-1.133V149.2a1.133,1.133,0,0,1,1.091-1.132l.9-.036a5.4,5.4,0,0,1,4.011,1.485,5.276,5.276,0,0,1,1.621,3.848,1.133,1.133,0,0,1-2.266,0,3.031,3.031,0,0,0-.923-2.213,3.14,3.14,0,0,0-2.169-.86v3.352A1.133,1.133,0,0,1,295.43,154.775Z" transform="translate(-263.522 -141.213)"/><path class="e" d="M229.626,124.188a1.133,1.133,0,0,1-1.133-1.133v-7.194a1.49,1.49,0,0,0-2.531-1.039,1.414,1.414,0,0,0-.418,1.01v7.194a1.133,1.133,0,1,1-2.266,0v-7.194a3.664,3.664,0,0,1,1.086-2.617,3.756,3.756,0,0,1,6.395,2.646v7.194A1.133,1.133,0,0,1,229.626,124.188Z" transform="translate(-202.771 -110.51)"/><path class="e" d="M228.014,150.607c-1.209,0-2.423-.012-3.625-.036a1.133,1.133,0,1,1,.045-2.265c1.72.035,3.463.044,5.181.028h.01a1.133,1.133,0,0,1,.01,2.266Q228.828,150.607,228.014,150.607Z" transform="translate(-202.77 -141.454)"/><path class="e" d="M85.588,115.081a3.613,3.613,0,0,1-.43-.026c-.916-.11-1.845-.228-2.76-.352a1.133,1.133,0,1,1,.3-2.245c.9.122,1.821.239,2.726.348a1.049,1.049,0,0,0,.836-.238,1.061,1.061,0,0,0,.339-.811,1.689,1.689,0,0,0-1.445-1.6l-.3-.037a3.964,3.964,0,0,1-3.436-3.887A3.251,3.251,0,0,1,82.5,103.76a3.3,3.3,0,0,1,2.625-.786c.9.11,1.822.214,2.729.31a1.133,1.133,0,1,1-.239,2.253c-.919-.1-1.849-.2-2.764-.314a1.063,1.063,0,0,0-.849.233,1,1,0,0,0-.321.778,1.735,1.735,0,0,0,1.443,1.638l.3.036a3.942,3.942,0,0,1,3.441,3.849,3.34,3.34,0,0,1-1.1,2.506A3.248,3.248,0,0,1,85.588,115.081Z" transform="translate(-81.417 -102.652)"/></g></g></svg>